<?xml version="1.0" encoding="UTF-8" standalone="no" ?>
<!DOCTYPE svg PUBLIC "-//W3C//DTD SVG 1.1//EN" "http://www.w3.org/Graphics/SVG/1.1/DTD/svg11.dtd">
<svg xmlns="http://www.w3.org/2000/svg" xmlns:xlink="http://www.w3.org/1999/xlink" version="1.1" width="60" height="56.5312" viewBox="0 0 60 56.5312" xml:space="preserve">
<desc>Created with Fabric.js 4.6.0</desc>
<defs>
</defs>
<g transform="matrix(0.04 0 0 0.04 30.88 31.15)" id="MJse89nG66vZ7lD0pizXu"  >
<g style="" vector-effect="non-scaling-stroke"   >
		<g transform="matrix(0.13 0 0 -0.13 0.07 -379)" id="sMkd77m8z-mTDCRFjS44l"  >
<path style="stroke: none; stroke-width: 1; stroke-dasharray: none; stroke-linecap: butt; stroke-dashoffset: 0; stroke-linejoin: miter; stroke-miterlimit: 4; fill: rgb(0,150,136); fill-rule: nonzero; opacity: 1;" vector-effect="non-scaling-stroke"  transform=" translate(-6400.5, -8872.5)" d="M 5828 11600 C 5546 11350 4410 10344 3305 9365 C 2199 8387 1140 7448 950 7280 C 760 7112 490 6873 350 6750 C 210 6626 74 6505 48 6480 L 0 6435 L 330 6065 C 511 5862 666 5696 673 5696 C 681 5697 1276 6217 1996 6852 C 5774 10184 6384 10720 6391 10718 C 6395 10716 6861 10305 7427 9804 C 7992 9303 9269 8173 10263 7292 C 11257 6411 12075 5690 12080 5690 C 12085 5690 12092 5695 12095 5700 C 12100 5708 12106 5707 12116 5699 C 12135 5684 12106 5654 12455 6050 C 12608 6223 12748 6381 12767 6401 L 12801 6437 L 11963 7176 C 11502 7583 10419 8539 9555 9300 C 8692 10062 7636 10993 7208 11370 L 6432 12055 L 6387 12055 L 6342 12055 L 5828 11600 z" stroke-linecap="round" />
</g>
		<g transform="matrix(0.13 0 0 -0.13 -0.73 144.94)" id="uUyTjLagSbZfau-328EYG"  >
<path style="stroke: none; stroke-width: 1; stroke-dasharray: none; stroke-linecap: butt; stroke-dashoffset: 0; stroke-linejoin: miter; stroke-miterlimit: 4; fill: rgb(0,150,136); fill-rule: nonzero; opacity: 1;" vector-effect="non-scaling-stroke"  transform=" translate(-6394.5, -4942.96)" d="M 5707 9301 C 5343 8979 4337 8088 3472 7322 L 1900 5929 L 1902 3057 L 1905 185 L 1927 144 C 1939 121 1968 86 1991 67 C 2074 -5 1967 0 3552 0 L 4980 0 L 4982 1273 C 4985 2539 4985 2545 5006 2590 C 5032 2648 5082 2698 5140 2724 C 5185 2745 5192 2745 6364 2748 C 7668 2751 7612 2753 7686 2688 C 7738 2642 7767 2591 7779 2525 C 7787 2485 7790 2071 7790 1233 L 7790 0 L 9274 2 L 10759 5 L 10789 34 C 10806 50 10834 97 10852 139 L 10885 215 L 10887 3075 L 10889 5935 L 8649 7910 C 7379 9030 6400 9886 6389 9886 C 6376 9887 6142 9686 5707 9301 z" stroke-linecap="round" />
</g>
</g>
</g>
</svg>